# xmcd
#
# Track frame offsets: 
#        150
#        34770
#        59465
#        71740
#        89825
#        120798
#        141730
#        162778
#        185178
#        194503
#        207265
#        227475
#        249453
#        269608
#
# Disc length: 3883 seconds
#
# Revision: 4
# Processed by: cddbd v1.5.2PL0 Copyright (c) Steve Scherf et al.
# Submitted via: ExactAudioCopy v1.1
#
DISCID=d90f290e
DTITLE=Various Artist - Rattlesnake Guitar - The Music Of Peter Green 
DTITLE=[CD2]
DYEAR=1997
DGENRE=Blues
TTITLE0=Billy Sheehan - Oh Well
TTITLE1=Vince Converse and Innes Sibun - Rattlesnake Shake
TTITLE2=Stu Hamm, Jonathan Mover and Larry Mitchell - Fleetwood Mac
TTITLE3=Zoot Money and Bobby Tench - Wathcha Gonna Do
TTITLE4=Rory Gallagher - Showbiz Blues
TTITLE5=Luther Grosvenor, Mike Kellie and Jess Roden - Merry Go Round
TTITLE6=Paul Jones, Bobby Tench and Max Middleton - Albatross
TTITLE7=Naked Blue - Closing My Eyes
TTITLE8=Ray Gomez - Evil Woman Blues
TTITLE9=Troy Turner - Lazy Poker Blues
TTITLE10=Harvey Mandel and Jon Paris - Watch Out
TTITLE11=Harvey Mandel and Wilbur Bascomb - Long Grey Mare
TTITLE12=Kim Lembo - A Fool No More
TTITLE13=Southside Johnny and The Uptown Horns - Baby When The Sun Goes 
TTITLE13=Down
EXTD=
EXTT0=
EXTT1=
EXTT2=
EXTT3=
EXTT4=
EXTT5=
EXTT6=
EXTT7=
EXTT8=
EXTT9=
EXTT10=
EXTT11=
EXTT12=
EXTT13=
PLAYORDER=
